<svg width="174" height="76" viewBox="0 0 174 76" fill="none" xmlns="http://www.w3.org/2000/svg">
<path d="M51.1211 24.4257L49.4007 20.2612L33.2976 40.8162H38.2033L51.1211 24.4257Z" fill="white"/>
<path d="M111.394 25.7618H106.656V31.1288H111.394V25.7618Z" fill="white"/>
<path d="M117.519 25.7618H112.781V31.1288H117.519V25.7618Z" fill="white"/>
<path d="M117.519 32.6989H112.781V38.0658H117.519V32.6989Z" fill="white"/>
<path d="M111.394 32.6989H106.656V38.0658H111.394V32.6989Z" fill="white"/>
<path d="M49.2631 33.5005H46.9233V36.1506H49.2631V33.5005Z" fill="white"/>
<path d="M52.2809 33.5005H49.9412V36.1506H52.2809V33.5005Z" fill="white"/>
<path d="M52.2809 36.9301H49.9412V39.5801H52.2809V36.9301Z" fill="white"/>
<path d="M49.2631 36.9301H46.9233V39.5801H49.2631V36.9301Z" fill="white"/>
<path d="M74.3615 22.3545L50.5706 20.3502L58.3075 40.8161H65.5628L74.3615 22.3545Z" fill="#2091F9"/>
<path d="M1.2387 40.8162H36.6301C36.7383 40.3485 36.8464 39.8697 36.9742 39.4132H0V75.3899H25.2655V73.9869H1.2387V40.8162Z" fill="white"/>
<path d="M133.809 39.4132C133.85 39.8856 133.919 40.3543 134.016 40.8162H171.983V73.9869H147.956V75.3899H173.222V39.4132H133.809Z" fill="white"/>
<path d="M137.004 40.8161L115.887 4.49426L113.498 9.69423L131.509 40.8161H137.004Z" fill="white"/>
<path d="M94.5443 40.8161L115.278 0.597046L96.7563 10.3846L94.0823 19.2034V6.29808H88.2034V14.8942L77.8219 20.3836L68.0696 40.8161H94.5443Z" fill="#2091F9"/>
<path d="M34.1644 62.8033V58.9577C34.1644 58.6589 34.1228 58.4623 34.0395 58.3679C33.9701 58.2735 33.7966 58.2263 33.519 58.2263H27.4606C26.3642 58.2263 25.8159 57.605 25.8159 56.3625V52.1158C25.8159 50.8732 26.3642 50.252 27.4606 50.252H34.2685C35.365 50.252 35.9132 50.8732 35.9132 52.1158V54.4515H34.0811V52.3753C34.0811 52.0607 34.0395 51.8641 33.9562 51.7855C33.8868 51.6911 33.7133 51.6439 33.4357 51.6439H28.2934C28.0297 51.6439 27.8562 51.6911 27.7729 51.7855C27.6896 51.8641 27.648 52.0607 27.648 52.3753V56.103C27.648 56.4175 27.6896 56.622 27.7729 56.7164C27.8562 56.795 28.0297 56.8343 28.2934 56.8343H34.331C35.4275 56.8343 35.9757 57.4556 35.9757 58.6982V63.0628C35.9757 64.3054 35.4275 64.9267 34.331 64.9267H27.5023C26.4058 64.9267 25.8576 64.3054 25.8576 63.0628V60.7272H27.6896V62.8033C27.6896 63.1179 27.7313 63.3224 27.8146 63.4167C27.8978 63.4954 28.0713 63.5347 28.335 63.5347H33.519C33.7966 63.5347 33.9701 63.4954 34.0395 63.4167C34.1228 63.3224 34.1644 63.1179 34.1644 62.8033Z" fill="white"/>
<path d="M56.3043 64.9267H54.7221V50.252H56.6999L61.5091 59.9486L66.5266 50.252H68.5044V64.9267H66.9221V52.8943L62.3627 61.7417H60.6972L56.3043 52.8943V64.9267Z" fill="white"/>
<path d="M89.5173 63.5347H96.7624V64.9267H87.6644V50.252H96.4709V51.6439H89.5173V56.7164H95.6173V58.1084H89.5173V63.5347Z" fill="white"/>
<path d="M124.346 50.252V51.6439H119.578V64.9267H117.767V51.6439H113V50.252H124.346Z" fill="white"/>
<path d="M143.571 60.6328H149.734L146.632 51.6675L143.571 60.6328ZM151.212 64.9267L150.212 62.0248H143.092L142.114 64.9267H140.282L145.32 50.252H147.964L153.023 64.9267H151.212Z" fill="white"/>
</svg>
