<svg width="41" height="41" viewBox="0 0 41 41" xmlns="http://www.w3.org/2000/svg">
<path d="M41 20.5C41 31.8211 31.8211 41 20.5 41C9.17888 41 0 31.8211 0 20.5C0 9.17888 9.17888 0 20.5 0C31.8211 0 41 9.17888 41 20.5ZM21.2346 15.1341C19.241 15.9627 15.2554 17.6795 9.27967 20.283C8.30933 20.6691 7.80025 21.0467 7.75413 21.4157C7.67554 22.0409 8.45796 22.2869 9.52054 22.62C9.66575 22.6662 9.81608 22.7123 9.96983 22.7635C11.017 23.1035 12.4247 23.5015 13.1559 23.5169C13.8204 23.5306 14.5618 23.2573 15.3801 22.6969C20.963 18.9266 23.8449 17.0218 24.026 16.9808C24.1541 16.9518 24.3318 16.9142 24.4514 17.0218C24.571 17.1278 24.559 17.3293 24.547 17.384C24.4685 17.7137 21.4037 20.5649 19.815 22.0409C19.3195 22.5005 18.9693 22.8268 18.8976 22.9019C18.737 23.0676 18.573 23.2265 18.4158 23.3785C17.4421 24.3147 16.7143 25.0185 18.4568 26.1665C19.2939 26.7183 19.9636 27.1745 20.6315 27.6289C21.361 28.126 22.0888 28.6214 23.0318 29.2398C23.2709 29.397 23.4998 29.5593 23.7236 29.7182C24.5727 30.3246 25.3363 30.8679 26.2793 30.7825C26.826 30.7312 27.3931 30.217 27.6801 28.6812C28.3583 25.0493 29.6943 17.1841 30.0035 13.9417C30.0223 13.6725 30.0108 13.402 29.9693 13.1354C29.9444 12.92 29.8396 12.7218 29.6755 12.5802C29.4312 12.3803 29.0519 12.3376 28.8811 12.341C28.1106 12.3547 26.9285 12.7664 21.2346 15.1341Z" />
</svg>
