<svg width="66" height="65" viewBox="0 0 66 65" fill="none" xmlns="http://www.w3.org/2000/svg">
<rect x="0.862213" y="0.5" width="64" height="64" rx="32" fill="white"/>
<path d="M44.4694 22.8281H21.2551C20.7612 22.8281 20.3622 23.2344 20.3622 23.7372V41.919C20.3622 42.4219 20.7612 42.8281 21.2551 42.8281H44.4694C44.9632 42.8281 45.3622 42.4219 45.3622 41.919V23.7372C45.3622 23.2344 44.9632 22.8281 44.4694 22.8281ZM43.3533 25.9759V40.7827H22.3711V25.9759L21.6011 25.3651L22.6976 23.9304L23.8918 24.8764H41.8354L43.0296 23.9304L44.1262 25.3651L43.3533 25.9759ZM41.8354 24.8736L32.8622 31.9759L23.889 24.8736L22.6948 23.9276L21.5983 25.3622L22.3684 25.973L31.8996 33.5185C32.1737 33.7353 32.5109 33.853 32.858 33.853C33.2051 33.853 33.5423 33.7353 33.8165 33.5185L43.3533 25.9759L44.1234 25.3651L43.0268 23.9304L41.8354 24.8736Z" fill="#2091F9"/>
<rect x="0.862213" y="0.5" width="64" height="64" rx="32" stroke="url(#paint0_linear)"/>
<defs>
<linearGradient id="paint0_linear" x1="1.49147" y1="65" x2="47.6676" y2="9.9093" gradientUnits="userSpaceOnUse">
<stop stop-color="#00F3B9"/>
<stop offset="1" stop-color="#2187FF"/>
</linearGradient>
</defs>
</svg>
