<svg width="45" height="45" viewBox="0 0 45 45" fill="none" xmlns="http://www.w3.org/2000/svg">
<path d="M37.5557 12.6826L28.0986 3.22559C27.835 2.96191 27.479 2.8125 27.1055 2.8125H8.4375C7.65967 2.8125 7.03125 3.44092 7.03125 4.21875V40.7812C7.03125 41.5591 7.65967 42.1875 8.4375 42.1875H36.5625C37.3403 42.1875 37.9688 41.5591 37.9688 40.7812V13.6802C37.9688 13.3066 37.8193 12.9463 37.5557 12.6826ZM34.7256 14.3262H26.4551V6.05566L34.7256 14.3262ZM34.8047 39.0234H10.1953V5.97656H23.4668V15.4688C23.4668 15.9583 23.6613 16.4277 24.0074 16.7739C24.3535 17.12 24.823 17.3145 25.3125 17.3145H34.8047V39.0234Z" fill="#2F80ED"/>
</svg>
