<svg width="66" height="65" viewBox="0 0 66 65" fill="none" xmlns="http://www.w3.org/2000/svg">
<rect x="0.862213" y="0.5" width="64" height="64" rx="32" fill="white"/>
<g clip-path="url(#clip0)">
<path d="M32.8621 35.9948C36.3549 35.9948 39.1954 33.1543 39.1954 29.6615C39.1954 26.1686 36.3549 23.3281 32.8621 23.3281C29.3692 23.3281 26.5287 26.1686 26.5287 29.6615C26.5287 33.1543 29.3692 35.9948 32.8621 35.9948ZM32.8621 26.4948C34.6085 26.4948 36.0287 27.915 36.0287 29.6615C36.0287 31.4079 34.6085 32.8281 32.8621 32.8281C31.1156 32.8281 29.6954 31.4079 29.6954 29.6615C29.6954 27.915 31.1156 26.4948 32.8621 26.4948Z" fill="#2091F9"/>
<path d="M31.6109 48.3668C31.8788 48.5582 32.1999 48.661 32.5292 48.661C32.8585 48.661 33.1796 48.5582 33.4475 48.3668C33.9289 48.0264 45.2418 39.858 45.1959 29.6613C45.1959 22.6772 39.5133 16.9946 32.5292 16.9946C25.5451 16.9946 19.8625 22.6772 19.8625 29.6534C19.8166 39.858 31.1295 48.0264 31.6109 48.3668ZM32.5292 20.1613C37.7685 20.1613 42.0292 24.422 42.0292 29.6692C42.0625 36.696 35.0815 43.0056 32.5292 45.075C29.9785 43.004 22.996 36.6929 23.0292 29.6613C23.0292 24.422 27.29 20.1613 32.5292 20.1613Z" fill="#2091F9"/>
</g>
<rect x="0.862213" y="0.5" width="64" height="64" rx="32" stroke="url(#paint0_linear)"/>
<defs>
<linearGradient id="paint0_linear" x1="1.49147" y1="65" x2="47.6676" y2="9.9093" gradientUnits="userSpaceOnUse">
<stop stop-color="#00F3B9"/>
<stop offset="1" stop-color="#2187FF"/>
</linearGradient>
<clipPath id="clip0">
<rect width="26" height="32" fill="white" transform="translate(19.8622 16.8281)"/>
</clipPath>
</defs>
</svg>
