<svg width="22" height="22" viewBox="0 0 22 22" fill="none" xmlns="http://www.w3.org/2000/svg">
<path d="M19.7656 16.3281H7.21875C7.12422 16.3281 7.04688 16.4055 7.04688 16.5V17.7031C7.04688 17.7977 7.12422 17.875 7.21875 17.875H19.7656C19.8602 17.875 19.9375 17.7977 19.9375 17.7031V16.5C19.9375 16.4055 19.8602 16.3281 19.7656 16.3281ZM19.7656 4.125H7.21875C7.12422 4.125 7.04688 4.20234 7.04688 4.29688V5.5C7.04688 5.59453 7.12422 5.67188 7.21875 5.67188H19.7656C19.8602 5.67188 19.9375 5.59453 19.9375 5.5V4.29688C19.9375 4.20234 19.8602 4.125 19.7656 4.125ZM19.7656 10.2266H7.21875C7.12422 10.2266 7.04688 10.3039 7.04688 10.3984V11.6016C7.04688 11.6961 7.12422 11.7734 7.21875 11.7734H19.7656C19.8602 11.7734 19.9375 11.6961 19.9375 11.6016V10.3984C19.9375 10.3039 19.8602 10.2266 19.7656 10.2266ZM4.64062 15.2969H2.14844C2.10117 15.2969 2.0625 15.3355 2.0625 15.3828V16.1133C2.0625 16.1605 2.10117 16.1992 2.14844 16.1992H3.70391V16.6396H2.93691C2.88965 16.6396 2.85098 16.6783 2.85098 16.7256V17.4561C2.85098 17.5033 2.88965 17.542 2.93691 17.542H3.70391V18.0039H2.14844C2.10117 18.0039 2.0625 18.0426 2.0625 18.0898V18.8203C2.0625 18.8676 2.10117 18.9062 2.14844 18.9062H4.64062C4.68789 18.9062 4.72656 18.8676 4.72656 18.8203V15.3828C4.72656 15.3355 4.68789 15.2969 4.64062 15.2969ZM2.14844 4.03906H2.96484V6.61719C2.96484 6.66445 3.00352 6.70312 3.05078 6.70312H3.91016C3.95742 6.70312 3.99609 6.66445 3.99609 6.61719V3.26562C3.99609 3.17109 3.91875 3.09375 3.82422 3.09375H2.14844C2.10117 3.09375 2.0625 3.13242 2.0625 3.17969V3.95312C2.0625 4.00039 2.10117 4.03906 2.14844 4.03906ZM4.64062 9.19531H2.14844C2.10117 9.19531 2.0625 9.23398 2.0625 9.28125V10.0547C2.0625 10.102 2.10117 10.1406 2.14844 10.1406H3.61797L2.10762 11.81C2.07913 11.842 2.06311 11.8831 2.0625 11.926V12.7188C2.0625 12.766 2.10117 12.8047 2.14844 12.8047H4.64062C4.68789 12.8047 4.72656 12.766 4.72656 12.7188V11.9453C4.72656 11.898 4.68789 11.8594 4.64062 11.8594H3.17109L4.68145 10.19C4.70993 10.158 4.72595 10.1169 4.72656 10.074V9.28125C4.72656 9.23398 4.68789 9.19531 4.64062 9.19531Z" fill="#828282"/>
</svg>
