<svg width="26" height="26" viewBox="0 0 26 26" fill="none" xmlns="http://www.w3.org/2000/svg">
<path d="M21.6988 7.33027C21.8512 7.48262 21.9375 7.68828 21.9375 7.9041V23.5625C21.9375 24.0119 21.5744 24.375 21.125 24.375H4.875C4.42559 24.375 4.0625 24.0119 4.0625 23.5625V2.4375C4.0625 1.98809 4.42559 1.625 4.875 1.625H15.6584C15.8742 1.625 16.0824 1.71133 16.2348 1.86367L21.6988 7.33027ZM20.0637 8.27734L15.2852 3.49883V8.27734H20.0637ZM16.0779 16.1804C15.6924 16.1677 15.2826 16.1974 14.8172 16.2556C14.2002 15.875 13.7848 15.3522 13.4898 14.5841L13.517 14.4729L13.5484 14.3414C13.6576 13.8811 13.7163 13.5451 13.7338 13.2064C13.747 12.9507 13.7328 12.7149 13.6873 12.4963C13.6035 12.0242 13.2696 11.7482 12.8489 11.7312C12.4566 11.7152 12.0961 11.9344 12.0039 12.2738C11.8539 12.8228 11.9417 13.5451 12.2599 14.7771C11.8546 15.7432 11.3191 16.8759 10.9599 17.5076C10.4802 17.7549 10.1067 17.9799 9.79291 18.2292C9.37904 18.5585 9.12057 18.897 9.04947 19.2524C9.01494 19.4172 9.06699 19.6325 9.18557 19.809C9.32014 20.0091 9.52275 20.1391 9.76574 20.1579C10.3789 20.2054 11.1325 19.5731 11.9646 18.1454C12.0481 18.1175 12.1365 18.088 12.2444 18.0515L12.5465 17.9494C12.7377 17.8849 12.8763 17.8387 13.0135 17.7943C13.6076 17.6008 14.057 17.4787 14.4658 17.4091C15.1762 17.7894 15.9974 18.0388 16.5504 18.0388C17.0069 18.0388 17.3154 17.8021 17.4269 17.4296C17.5246 17.1026 17.4472 16.7233 17.2369 16.5136C17.0196 16.3 16.6199 16.1979 16.0779 16.1804ZM9.78123 19.4411V19.432L9.78453 19.4233C9.82168 19.3273 9.86937 19.2356 9.92672 19.1501C10.0354 18.983 10.1849 18.8073 10.3703 18.6202C10.4698 18.5199 10.5734 18.4222 10.695 18.3125C10.7222 18.2881 10.8959 18.1335 10.9284 18.103L11.212 17.8389L11.0058 18.1672C10.693 18.6659 10.4102 19.0249 10.1679 19.259C10.0788 19.3454 10.0004 19.4088 9.93687 19.4497C9.91592 19.4637 9.89374 19.4758 9.87061 19.4858C9.8602 19.4901 9.85105 19.4926 9.84191 19.4934C9.83226 19.4946 9.82246 19.4933 9.81348 19.4896C9.80392 19.4856 9.79576 19.4788 9.79002 19.4702C9.78429 19.4616 9.78123 19.4515 9.78123 19.4411ZM12.9789 13.8988L12.9215 14.0004L12.886 13.8892C12.8073 13.6396 12.7494 13.2636 12.7334 12.9243C12.7151 12.5384 12.7458 12.3068 12.8677 12.3068C13.0388 12.3068 13.1173 12.5811 13.1234 12.9937C13.129 13.3562 13.0719 13.7335 12.9787 13.8988H12.9789ZM12.8314 15.3832L12.8703 15.2803L12.9233 15.3768C13.2201 15.9161 13.6053 16.366 14.0288 16.6796L14.1202 16.7471L14.0088 16.77C13.5941 16.8558 13.2079 16.9848 12.6798 17.1978C12.7349 17.1755 12.1309 17.4228 11.978 17.4814L11.8447 17.5325L11.9158 17.4086C12.2294 16.8627 12.5191 16.2071 12.8312 15.3832H12.8314ZM16.8335 17.3195C16.6339 17.3982 16.2043 17.3278 15.4479 17.0049L15.256 16.9231L15.4642 16.9079C16.0558 16.8639 16.4747 16.8964 16.719 16.9858C16.8231 17.0239 16.8924 17.0719 16.9231 17.1267C16.9393 17.1527 16.9447 17.1839 16.9383 17.2138C16.9318 17.2437 16.914 17.27 16.8886 17.287C16.8724 17.3012 16.8537 17.3122 16.8335 17.3195Z" fill="#F2F2F2"/>
</svg>
