<svg width="19" height="19" viewBox="0 0 19 19" fill="none" xmlns="http://www.w3.org/2000/svg">
<path d="M13 6.16647C13 6.07491 12.9273 6 12.8385 6L11.5063 6.00624L9.5 8.47206L7.49567 6.00832L6.16148 6.00208C6.07266 6.00208 6 6.07491 6 6.16855C6 6.20809 6.01413 6.24554 6.03835 6.27675L8.66436 9.50208L6.03835 12.7253C6.01396 12.7558 6.00043 12.794 6 12.8335C6 12.9251 6.07266 13 6.16148 13L7.49567 12.9938L9.5 10.5279L11.5043 12.9917L12.8365 12.9979C12.9253 12.9979 12.998 12.9251 12.998 12.8314C12.998 12.7919 12.9839 12.7545 12.9596 12.7232L10.3377 9.5L12.9637 6.27467C12.9879 6.24554 13 6.206 13 6.16647Z" fill="white"/>
<path d="M9.5 0C4.25379 0 0 4.25379 0 9.5C0 14.7462 4.25379 19 9.5 19C14.7462 19 19 14.7462 19 9.5C19 4.25379 14.7462 0 9.5 0ZM9.5 17.3884C5.14442 17.3884 1.61161 13.8556 1.61161 9.5C1.61161 5.14442 5.14442 1.61161 9.5 1.61161C13.8556 1.61161 17.3884 5.14442 17.3884 9.5C17.3884 13.8556 13.8556 17.3884 9.5 17.3884Z" fill="white"/>
</svg>
