<svg width="47" height="47" viewBox="0 0 47 47" fill="none" xmlns="http://www.w3.org/2000/svg">
<path d="M26.8428 4.49042C26.6612 4.30821 26.4455 4.16371 26.2078 4.06523C25.9702 3.96676 25.7155 3.91625 25.4583 3.91663H11.7499C9.58988 3.91663 7.83325 5.67325 7.83325 7.83329V39.1666C7.83325 41.3267 9.58988 43.0833 11.7499 43.0833H35.2499C37.41 43.0833 39.1666 41.3267 39.1666 39.1666V17.625C39.167 17.3677 39.1165 17.113 39.018 16.8754C38.9195 16.6378 38.775 16.422 38.5928 16.2404L26.8428 4.49042ZM11.7499 7.83329H24.6475L35.2499 18.4357L35.2538 36.4015L30.2248 31.3725C30.9103 30.2073 31.3333 28.8638 31.3333 27.4166C31.3333 23.0965 27.82 19.5833 23.4999 19.5833C19.1798 19.5833 15.6666 23.0965 15.6666 27.4166C15.6666 31.7367 19.1798 35.25 23.4999 35.25C24.9471 35.25 26.2905 34.827 27.4558 34.1415L32.4808 39.1666H11.7499V7.83329ZM23.4999 31.3333C21.3399 31.3333 19.5833 29.5767 19.5833 27.4166C19.5833 25.2566 21.3399 23.5 23.4999 23.5C25.66 23.5 27.4166 25.2566 27.4166 27.4166C27.4166 29.5767 25.66 31.3333 23.4999 31.3333Z" fill="#2F80ED"/>
</svg>
