<svg width="27" height="33" viewBox="0 0 27 33" fill="none" xmlns="http://www.w3.org/2000/svg">
<g clip-path="url(#clip0)">
<path d="M13.8621 19.9948C17.3549 19.9948 20.1954 17.1543 20.1954 13.6615C20.1954 10.1686 17.3549 7.32812 13.8621 7.32812C10.3692 7.32812 7.52872 10.1686 7.52872 13.6615C7.52872 17.1543 10.3692 19.9948 13.8621 19.9948ZM13.8621 10.4948C15.6085 10.4948 17.0287 11.915 17.0287 13.6615C17.0287 15.4079 15.6085 16.8281 13.8621 16.8281C12.1156 16.8281 10.6954 15.4079 10.6954 13.6615C10.6954 11.915 12.1156 10.4948 13.8621 10.4948Z" fill="#2091F9"/>
<path d="M12.6109 32.3668C12.8788 32.5582 13.1999 32.661 13.5292 32.661C13.8585 32.661 14.1796 32.5582 14.4475 32.3668C14.9289 32.0264 26.2418 23.858 26.1959 13.6613C26.1959 6.67721 20.5133 0.994629 13.5292 0.994629C6.54512 0.994629 0.862536 6.67721 0.862536 13.6534C0.816619 23.858 12.1295 32.0264 12.6109 32.3668ZM13.5292 4.1613C18.7685 4.1613 23.0292 8.42205 23.0292 13.6692C23.0625 20.696 16.0815 27.0056 13.5292 29.075C10.9785 27.004 3.99595 20.6929 4.0292 13.6613C4.0292 8.42205 8.28995 4.1613 13.5292 4.1613Z" fill="#2091F9"/>
</g>
<defs>
<clipPath id="clip0">
<rect width="26" height="32" fill="white" transform="translate(0.862213 0.828125)"/>
</clipPath>
</defs>
</svg>
