<svg width="41" height="41" viewBox="0 0 41 41" xmlns="http://www.w3.org/2000/svg">
<g>
<path d="M38.4338 9.48101C32.3007 -0.000313419 19.7789 -2.81908 10.0682 3.07471C0.612985 8.96851 -2.45356 21.7811 3.67953 31.2624L4.19063 32.0312L2.14626 39.7187L9.81263 37.6687L10.5793 38.1812C13.9014 39.975 17.479 41 21.0567 41C24.8898 41 28.723 39.975 32.0451 37.925C41.5003 31.7749 44.3113 19.2186 38.4338 9.48101ZM33.0673 29.2124C32.0451 30.7499 30.7674 31.7749 28.9786 32.0312C27.9564 32.0312 26.6787 32.5437 21.5677 30.4937C17.2235 28.4437 13.6458 25.1124 11.0904 21.2686C9.55709 19.4748 8.79045 17.1686 8.53491 14.8623C8.53491 12.8123 9.30154 11.0185 10.5793 9.73726C11.0904 9.22476 11.6015 8.96851 12.1125 8.96851H13.3903C13.9014 8.96851 14.4125 8.96851 14.668 9.99351C15.1791 11.2748 16.4568 14.3498 16.4568 14.606C16.7124 14.8623 16.7124 15.3748 16.4568 15.6311C16.7124 16.1436 16.4568 16.6561 16.2013 16.9123C15.9457 17.1686 15.6902 17.6811 15.4346 17.9373C14.9236 18.1936 14.668 18.7061 14.9236 19.2186C15.9457 20.7561 17.2235 22.2936 18.5012 23.5749C20.0345 24.8561 21.5677 25.8811 23.3566 26.6499C23.8677 26.9061 24.3787 26.9061 24.6343 26.3936C24.8898 25.8811 26.1676 24.5999 26.6787 24.0874C27.1897 23.5749 27.4453 23.5749 27.9564 23.8311L32.0451 25.8811C32.5562 26.1374 33.0673 26.3936 33.3228 26.6499C33.5784 27.4186 33.5784 28.4437 33.0673 29.2124Z"/>
</g>
</svg>
