<svg width="44" height="44" viewBox="0 0 44 44" fill="none" xmlns="http://www.w3.org/2000/svg">
<path d="M34.8332 20.1667H13.0899L19.7449 12.1734C20.0561 11.799 20.2058 11.3163 20.1611 10.8315C20.1164 10.3467 19.881 9.89958 19.5066 9.58839C19.1322 9.2772 18.6495 9.12749 18.1647 9.17219C17.6799 9.21688 17.2328 9.45233 16.9216 9.82672L7.75492 20.8267C7.69325 20.9142 7.6381 21.0061 7.58992 21.1017C7.58992 21.1934 7.58992 21.2484 7.46159 21.3401C7.37849 21.5503 7.33498 21.774 7.33325 22.0001C7.33498 22.2261 7.37849 22.4498 7.46159 22.6601C7.46159 22.7517 7.46159 22.8067 7.58992 22.8984C7.6381 22.994 7.69325 23.0859 7.75492 23.1734L16.9216 34.1734C17.094 34.3803 17.3098 34.5468 17.5538 34.6608C17.7978 34.7749 18.0639 34.8338 18.3333 34.8334C18.7616 34.8342 19.1767 34.685 19.5066 34.4117C19.6922 34.2578 19.8457 34.0688 19.9582 33.8555C20.0706 33.6422 20.1399 33.4088 20.1621 33.1687C20.1842 32.9285 20.1588 32.6864 20.0872 32.4561C20.0156 32.2259 19.8993 32.012 19.7449 31.8267L13.0899 23.8334H34.8332C35.3195 23.8334 35.7858 23.6402 36.1296 23.2964C36.4734 22.9526 36.6666 22.4863 36.6666 22.0001C36.6666 21.5138 36.4734 21.0475 36.1296 20.7037C35.7858 20.3599 35.3195 20.1667 34.8332 20.1667Z" fill="black"/>
</svg>
