<svg width="46" height="45" viewBox="0 0 46 45" fill="none" xmlns="http://www.w3.org/2000/svg">
<g clip-path="url(#clip0)">
<path d="M5.5 5V40H40.5V5H5.5ZM5.5 0H40.5C41.8261 0 43.0979 0.526784 44.0355 1.46447C44.9732 2.40215 45.5 3.67392 45.5 5V40C45.5 41.3261 44.9732 42.5979 44.0355 43.5355C43.0979 44.4732 41.8261 45 40.5 45H5.5C4.17392 45 2.90215 44.4732 1.96447 43.5355C1.02678 42.5979 0.5 41.3261 0.5 40V5C0.5 3.67392 1.02678 2.40215 1.96447 1.46447C2.90215 0.526784 4.17392 0 5.5 0ZM14.25 17.5C15.2446 17.5 16.1984 17.1049 16.9017 16.4017C17.6049 15.6984 18 14.7446 18 13.75C18 12.7554 17.6049 11.8016 16.9017 11.0983C16.1984 10.3951 15.2446 10 14.25 10C13.2554 10 12.3016 10.3951 11.5983 11.0983C10.8951 11.8016 10.5 12.7554 10.5 13.75C10.5 14.7446 10.8951 15.6984 11.5983 16.4017C12.3016 17.1049 13.2554 17.5 14.25 17.5ZM10.5 27.5L15.5 22.5L20.5 27.5L28 20L35.5 27.5V35H10.5V27.5Z" fill="white"/>
</g>
<defs>
<clipPath id="clip0">
<rect width="45" height="45" fill="white" transform="translate(0.5)"/>
</clipPath>
</defs>
</svg>
