<svg width="21" height="21" viewBox="0 0 21 21" xmlns="http://www.w3.org/2000/svg">
<path fill-rule="evenodd" clip-rule="evenodd" d="M10.5 19.6875C12.9367 19.6875 15.2736 18.7195 16.9965 16.9965C18.7195 15.2736 19.6875 12.9367 19.6875 10.5C19.6875 8.06332 18.7195 5.72645 16.9965 4.00346C15.2736 2.28047 12.9367 1.3125 10.5 1.3125C8.06332 1.3125 5.72645 2.28047 4.00346 4.00346C2.28047 5.72645 1.3125 8.06332 1.3125 10.5C1.3125 12.9367 2.28047 15.2736 4.00346 16.9965C5.72645 18.7195 8.06332 19.6875 10.5 19.6875ZM10.5 0C13.2848 0 15.9555 1.10625 17.9246 3.07538C19.8938 5.04451 21 7.71523 21 10.5C21 13.2848 19.8938 15.9555 17.9246 17.9246C15.9555 19.8938 13.2848 21 10.5 21C7.71523 21 5.04451 19.8938 3.07538 17.9246C1.10625 15.9555 0 13.2848 0 10.5C0 7.71523 1.10625 5.04451 3.07538 3.07538C5.04451 1.10625 7.71523 0 10.5 0ZM5.90625 9.84375C5.7322 9.84375 5.56528 9.91289 5.44221 10.036C5.31914 10.159 5.25 10.326 5.25 10.5C5.25 10.674 5.31914 10.841 5.44221 10.964C5.56528 11.0871 5.7322 11.1563 5.90625 11.1563L13.5096 11.1563L10.6916 13.9729C10.5684 14.0961 10.4992 14.2632 10.4992 14.4375C10.4992 14.6118 10.5684 14.7789 10.6916 14.9021C10.8149 15.0254 10.982 15.0946 11.1563 15.0946C11.3305 15.0946 11.4976 15.0254 11.6209 14.9021L15.5584 10.9646C15.6195 10.9037 15.668 10.8312 15.7011 10.7515C15.7341 10.6718 15.7512 10.5863 15.7512 10.5C15.7512 10.4137 15.7341 10.3282 15.7011 10.2485C15.668 10.1688 15.6195 10.0963 15.5584 10.0354L11.6209 6.09787C11.4976 5.97465 11.3305 5.90542 11.1563 5.90542C10.982 5.90542 10.8149 5.97465 10.6916 6.09787C10.5684 6.2211 10.4992 6.38823 10.4992 6.5625C10.4992 6.73677 10.5684 6.9039 10.6916 7.02713L13.5096 9.84375L5.90625 9.84375Z" />
</svg>
