<svg viewBox="0 0 37 37" fill="none" xmlns="http://www.w3.org/2000/svg">
<path d="M11.1 17.2667H9.86667V19.7333H11.1V17.2667ZM25.9 19.7333H27.1333V17.2667H25.9V19.7333ZM20.9667 24.6667H19.7333V27.1333H20.9667V24.6667ZM25.9 27.1333H27.1333V24.6667H25.9V27.1333ZM11.1 9.86667H9.86667V12.3333H11.1V9.86667ZM16.0333 12.3333H17.2667V9.86667H16.0333V12.3333ZM25.9 1.23333L26.7732 0.360133L26.4106 0H25.9V1.23333ZM33.3 8.63333H34.5333V8.12273L34.1732 7.76013L33.3 8.63333ZM11.1 19.7333H25.9V17.2667H11.1V19.7333ZM20.9667 27.1333H25.9V24.6667H20.9667V27.1333ZM11.1 12.3333H16.0333V9.86667H11.1V12.3333ZM30.8333 34.5333H6.16667V37H30.8333V34.5333ZM4.93334 33.3V3.7H2.46667V33.3H4.93334ZM6.16667 2.46667H25.9V0H6.16667V2.46667ZM32.0667 8.63333V33.3H34.5333V8.63333H32.0667ZM25.0268 2.10653L32.4268 9.50653L34.1732 7.76013L26.7732 0.360133L25.0268 2.10653ZM6.16667 34.5333C5.83957 34.5333 5.52587 34.4034 5.29458 34.1721C5.06328 33.9408 4.93334 33.6271 4.93334 33.3H2.46667C2.46667 34.2813 2.8565 35.2224 3.55038 35.9163C4.24426 36.6102 5.18537 37 6.16667 37V34.5333ZM30.8333 37C31.8146 37 32.7558 36.6102 33.4496 35.9163C34.1435 35.2224 34.5333 34.2813 34.5333 33.3H32.0667C32.0667 33.6271 31.9367 33.9408 31.7054 34.1721C31.4741 34.4034 31.1604 34.5333 30.8333 34.5333V37ZM4.93334 3.7C4.93334 3.3729 5.06328 3.0592 5.29458 2.8279C5.52587 2.59661 5.83957 2.46667 6.16667 2.46667V0C5.18537 0 4.24426 0.38982 3.55038 1.0837C2.8565 1.77759 2.46667 2.7187 2.46667 3.7H4.93334Z" fill="#2F80ED"/>
</svg>
