<svg width="18" height="18" viewBox="0 0 18 18" fill="none" xmlns="http://www.w3.org/2000/svg">
<g clip-path="url(#clip0)">
<path d="M9 1.56525C7.84091 1.56525 6.93537 1.99731 6.28338 2.86144C5.63139 3.72557 5.3054 4.83019 5.3054 6.1753C5.29735 7.8465 5.8286 9.17123 6.89915 10.1495C7.03598 10.2799 7.08428 10.447 7.04403 10.6508L6.76634 11.2378C6.67779 11.4335 6.54699 11.5863 6.37393 11.6964C6.20088 11.8064 5.83665 11.9633 5.28125 12.1672C5.2571 12.1753 4.74799 12.3424 3.75391 12.6685C2.75982 12.9946 2.23059 13.1739 2.16619 13.2066C1.49006 13.4919 1.04735 13.7894 0.838068 14.0992C0.612689 14.6128 0.5 15.9131 0.5 18H17.5C17.5 15.9131 17.3873 14.6128 17.1619 14.0992C16.9527 13.7894 16.5099 13.4919 15.8338 13.2066C15.7694 13.1739 15.2402 12.9946 14.2461 12.6685C13.252 12.3424 12.7429 12.1753 12.7188 12.1672C12.1634 11.9633 11.7991 11.8064 11.6261 11.6964C11.453 11.5863 11.3222 11.4335 11.2337 11.2378L10.956 10.6508C10.9157 10.447 10.964 10.2799 11.1009 10.1495C12.1714 9.17123 12.7027 7.8465 12.6946 6.1753C12.6946 4.83019 12.3686 3.72557 11.7166 2.86144C11.0646 1.99731 10.1591 1.56525 9 1.56525Z" fill="#737373"/>
</g>
<defs>
<clipPath id="clip0">
<rect width="17" height="18" fill="white" transform="translate(0.5)"/>
</clipPath>
</defs>
</svg>
